<mxfile host="Electron" agent="Mozilla/5.0 (Windows NT 10.0; Win64; x64) AppleWebKit/537.36 (KHTML, like Gecko) draw.io/28.1.2 Chrome/138.0.7204.243 Electron/37.4.0 Safari/537.36" version="28.1.2" pages="2">
  <diagram name="RTTRTR" id="nop8qZoBcyeuUIkml6q2">
    <mxGraphModel dx="1403" dy="819" grid="1" gridSize="10" guides="1" tooltips="1" connect="1" arrows="1" fold="1" page="1" pageScale="1" pageWidth="850" pageHeight="1100" math="0" shadow="0">
      <root>
        <mxCell id="0" />
        <mxCell id="1" parent="0" />
        <mxCell id="ET2ku8fU4Wo7wy7XLJ3j-1" value="" style="endArrow=none;html=1;rounded=0;" parent="1" edge="1">
          <mxGeometry width="50" height="50" relative="1" as="geometry">
            <mxPoint x="239.66" y="420" as="sourcePoint" />
            <mxPoint x="319.66" y="420" as="targetPoint" />
          </mxGeometry>
        </mxCell>
        <mxCell id="ET2ku8fU4Wo7wy7XLJ3j-5" value="" style="shape=partialRectangle;whiteSpace=wrap;html=1;bottom=0;right=0;fillColor=none;" parent="1" vertex="1">
          <mxGeometry x="280" y="380" width="40" height="40" as="geometry" />
        </mxCell>
        <mxCell id="ET2ku8fU4Wo7wy7XLJ3j-7" value="" style="shape=partialRectangle;whiteSpace=wrap;html=1;bottom=0;right=0;fillColor=none;" parent="1" vertex="1">
          <mxGeometry x="320" y="260" width="140" height="30" as="geometry" />
        </mxCell>
        <mxCell id="ET2ku8fU4Wo7wy7XLJ3j-8" value="" style="endArrow=none;html=1;rounded=0;" parent="1" edge="1">
          <mxGeometry width="50" height="50" relative="1" as="geometry">
            <mxPoint x="460" y="290" as="sourcePoint" />
            <mxPoint x="460" y="260" as="targetPoint" />
          </mxGeometry>
        </mxCell>
        <mxCell id="ET2ku8fU4Wo7wy7XLJ3j-10" value="" style="shape=sortShape;perimeter=rhombusPerimeter;whiteSpace=wrap;html=1;" parent="1" vertex="1">
          <mxGeometry x="263" y="370" width="33.33" height="20" as="geometry" />
        </mxCell>
        <mxCell id="ET2ku8fU4Wo7wy7XLJ3j-12" value="" style="shape=sortShape;perimeter=rhombusPerimeter;whiteSpace=wrap;html=1;rotation=90;" parent="1" vertex="1">
          <mxGeometry x="412.995" y="250.00499999999997" width="33.33" height="20" as="geometry" />
        </mxCell>
        <mxCell id="ET2ku8fU4Wo7wy7XLJ3j-15" value="" style="endArrow=none;html=1;rounded=0;" parent="1" edge="1">
          <mxGeometry width="50" height="50" relative="1" as="geometry">
            <mxPoint x="320" y="380" as="sourcePoint" />
            <mxPoint x="320" y="290" as="targetPoint" />
          </mxGeometry>
        </mxCell>
        <mxCell id="ET2ku8fU4Wo7wy7XLJ3j-19" value="" style="shape=providedRequiredInterface;html=1;verticalLabelPosition=bottom;sketch=0;rotation=-90;" parent="1" vertex="1">
          <mxGeometry x="310" y="276" width="20" height="20" as="geometry" />
        </mxCell>
        <mxCell id="ET2ku8fU4Wo7wy7XLJ3j-20" value="" style="shape=providedRequiredInterface;html=1;verticalLabelPosition=bottom;sketch=0;rotation=90;" parent="1" vertex="1">
          <mxGeometry x="449.65999999999997" y="254" width="20" height="20" as="geometry" />
        </mxCell>
        <mxCell id="ET2ku8fU4Wo7wy7XLJ3j-6" value="" style="shape=providedRequiredInterface;html=1;verticalLabelPosition=bottom;sketch=0;rotation=-180;" parent="1" vertex="1">
          <mxGeometry x="307" y="370" width="20" height="20" as="geometry" />
        </mxCell>
        <mxCell id="ET2ku8fU4Wo7wy7XLJ3j-23" value="" style="endArrow=none;html=1;rounded=0;" parent="1" edge="1">
          <mxGeometry width="50" height="50" relative="1" as="geometry">
            <mxPoint x="459.49" y="320" as="sourcePoint" />
            <mxPoint x="459.49" y="300" as="targetPoint" />
          </mxGeometry>
        </mxCell>
        <mxCell id="ET2ku8fU4Wo7wy7XLJ3j-24" value="" style="endArrow=classic;html=1;rounded=0;" parent="1" edge="1">
          <mxGeometry width="50" height="50" relative="1" as="geometry">
            <mxPoint x="460" y="320" as="sourcePoint" />
            <mxPoint x="450" y="330" as="targetPoint" />
          </mxGeometry>
        </mxCell>
        <mxCell id="ET2ku8fU4Wo7wy7XLJ3j-21" value="" style="shape=sortShape;perimeter=rhombusPerimeter;whiteSpace=wrap;html=1;" parent="1" vertex="1">
          <mxGeometry x="442.99499999999995" y="290" width="33.33" height="20" as="geometry" />
        </mxCell>
        <mxCell id="ET2ku8fU4Wo7wy7XLJ3j-32" value="R" style="text;html=1;align=center;verticalAlign=middle;whiteSpace=wrap;rounded=0;" parent="1" vertex="1">
          <mxGeometry x="230" y="365" width="30" height="30" as="geometry" />
        </mxCell>
        <mxCell id="ET2ku8fU4Wo7wy7XLJ3j-33" value="R" style="text;html=1;align=center;verticalAlign=middle;whiteSpace=wrap;rounded=0;" parent="1" vertex="1">
          <mxGeometry x="400" y="224" width="30" height="30" as="geometry" />
        </mxCell>
        <mxCell id="ET2ku8fU4Wo7wy7XLJ3j-34" value="R" style="text;html=1;align=center;verticalAlign=middle;whiteSpace=wrap;rounded=0;" parent="1" vertex="1">
          <mxGeometry x="476.32" y="290" width="30" height="30" as="geometry" />
        </mxCell>
        <mxCell id="ET2ku8fU4Wo7wy7XLJ3j-35" value="T" style="text;html=1;align=center;verticalAlign=middle;whiteSpace=wrap;rounded=0;" parent="1" vertex="1">
          <mxGeometry x="327" y="365" width="30" height="30" as="geometry" />
        </mxCell>
        <mxCell id="ET2ku8fU4Wo7wy7XLJ3j-36" value="T" style="text;html=1;align=center;verticalAlign=middle;whiteSpace=wrap;rounded=0;" parent="1" vertex="1">
          <mxGeometry x="327" y="274" width="30" height="30" as="geometry" />
        </mxCell>
        <mxCell id="ET2ku8fU4Wo7wy7XLJ3j-37" value="T" style="text;html=1;align=center;verticalAlign=middle;whiteSpace=wrap;rounded=0;" parent="1" vertex="1">
          <mxGeometry x="469.65999999999997" y="224" width="30" height="30" as="geometry" />
        </mxCell>
        <mxCell id="AO9612n5DSUKAyMjCeS1-1" value="End Effector" style="text;html=1;align=center;verticalAlign=middle;whiteSpace=wrap;rounded=0;" parent="1" vertex="1">
          <mxGeometry x="405" y="323" width="77.82" height="30" as="geometry" />
        </mxCell>
        <mxCell id="AO9612n5DSUKAyMjCeS1-3" value="" style="group" parent="1" vertex="1" connectable="0">
          <mxGeometry x="210" y="276" width="50" height="59" as="geometry" />
        </mxCell>
        <mxCell id="AO9612n5DSUKAyMjCeS1-2" value="Î£" style="text;html=1;align=center;verticalAlign=middle;whiteSpace=wrap;rounded=0;container=0;" parent="AO9612n5DSUKAyMjCeS1-3" vertex="1">
          <mxGeometry x="30" width="20" height="30" as="geometry" />
        </mxCell>
        <mxCell id="ET2ku8fU4Wo7wy7XLJ3j-26" value="" style="endArrow=classic;html=1;rounded=0;" parent="AO9612n5DSUKAyMjCeS1-3" edge="1">
          <mxGeometry width="50" height="50" relative="1" as="geometry">
            <mxPoint x="5" y="54" as="sourcePoint" />
            <mxPoint x="35" y="54" as="targetPoint" />
          </mxGeometry>
        </mxCell>
        <mxCell id="ET2ku8fU4Wo7wy7XLJ3j-28" value="X" style="edgeLabel;html=1;align=center;verticalAlign=middle;resizable=0;points=[];container=0;" parent="ET2ku8fU4Wo7wy7XLJ3j-26" vertex="1" connectable="0">
          <mxGeometry x="0.4667" y="-1" relative="1" as="geometry">
            <mxPoint x="18" y="-1" as="offset" />
          </mxGeometry>
        </mxCell>
        <mxCell id="ET2ku8fU4Wo7wy7XLJ3j-27" value="" style="endArrow=classic;html=1;rounded=0;" parent="AO9612n5DSUKAyMjCeS1-3" edge="1">
          <mxGeometry width="50" height="50" relative="1" as="geometry">
            <mxPoint x="5" y="54" as="sourcePoint" />
            <mxPoint x="5" y="24" as="targetPoint" />
          </mxGeometry>
        </mxCell>
        <mxCell id="ET2ku8fU4Wo7wy7XLJ3j-29" value="Z" style="edgeLabel;html=1;align=center;verticalAlign=middle;resizable=0;points=[];container=0;" parent="ET2ku8fU4Wo7wy7XLJ3j-27" vertex="1" connectable="0">
          <mxGeometry x="0.1556" y="1" relative="1" as="geometry">
            <mxPoint x="1" y="-23" as="offset" />
          </mxGeometry>
        </mxCell>
        <mxCell id="ET2ku8fU4Wo7wy7XLJ3j-25" value="" style="shape=sumEllipse;perimeter=ellipsePerimeter;whiteSpace=wrap;html=1;backgroundOutline=1;container=0;" parent="AO9612n5DSUKAyMjCeS1-3" vertex="1">
          <mxGeometry y="49" width="10" height="10" as="geometry" />
        </mxCell>
        <mxCell id="AO9612n5DSUKAyMjCeS1-4" value="" style="ellipse;whiteSpace=wrap;html=1;aspect=fixed;fillColor=none;" parent="1" vertex="1">
          <mxGeometry x="235" y="370" width="20" height="20" as="geometry" />
        </mxCell>
        <mxCell id="AO9612n5DSUKAyMjCeS1-5" value="" style="ellipse;whiteSpace=wrap;html=1;aspect=fixed;fillColor=none;" parent="1" vertex="1">
          <mxGeometry x="332" y="370" width="20" height="20" as="geometry" />
        </mxCell>
        <mxCell id="AO9612n5DSUKAyMjCeS1-6" value="" style="ellipse;whiteSpace=wrap;html=1;aspect=fixed;fillColor=none;" parent="1" vertex="1">
          <mxGeometry x="332" y="279" width="20" height="20" as="geometry" />
        </mxCell>
        <mxCell id="AO9612n5DSUKAyMjCeS1-7" value="" style="ellipse;whiteSpace=wrap;html=1;aspect=fixed;fillColor=none;" parent="1" vertex="1">
          <mxGeometry x="405" y="229" width="20" height="20" as="geometry" />
        </mxCell>
        <mxCell id="AO9612n5DSUKAyMjCeS1-8" value="" style="ellipse;whiteSpace=wrap;html=1;aspect=fixed;fillColor=none;" parent="1" vertex="1">
          <mxGeometry x="474.66" y="229" width="20" height="20" as="geometry" />
        </mxCell>
        <mxCell id="AO9612n5DSUKAyMjCeS1-9" value="" style="ellipse;whiteSpace=wrap;html=1;aspect=fixed;fillColor=none;" parent="1" vertex="1">
          <mxGeometry x="481.32" y="295" width="20" height="20" as="geometry" />
        </mxCell>
      </root>
    </mxGraphModel>
  </diagram>
  <diagram id="hElmjopPUJ_KUkRHj021" name="MiRobot">
    <mxGraphModel dx="1403" dy="818" grid="1" gridSize="10" guides="1" tooltips="1" connect="1" arrows="1" fold="1" page="1" pageScale="1" pageWidth="850" pageHeight="1100" math="0" shadow="0">
      <root>
        <mxCell id="0" />
        <mxCell id="1" parent="0" />
        <mxCell id="RkNGV9gXXJkvIQX--Nig-1" value="" style="shape=partialRectangle;whiteSpace=wrap;html=1;bottom=0;right=0;fillColor=none;" vertex="1" parent="1">
          <mxGeometry x="249" y="180" width="200" height="20" as="geometry" />
        </mxCell>
        <mxCell id="RkNGV9gXXJkvIQX--Nig-2" value="" style="endArrow=none;html=1;rounded=0;" edge="1" parent="1">
          <mxGeometry width="50" height="50" relative="1" as="geometry">
            <mxPoint x="189" y="360" as="sourcePoint" />
            <mxPoint x="189" y="360" as="targetPoint" />
          </mxGeometry>
        </mxCell>
        <mxCell id="RkNGV9gXXJkvIQX--Nig-3" value="" style="endArrow=none;html=1;rounded=0;" edge="1" parent="1">
          <mxGeometry width="50" height="50" relative="1" as="geometry">
            <mxPoint x="249" y="356.99999999999994" as="sourcePoint" />
            <mxPoint x="249" y="357" as="targetPoint" />
          </mxGeometry>
        </mxCell>
        <mxCell id="RkNGV9gXXJkvIQX--Nig-4" value="" style="endArrow=none;html=1;rounded=0;" edge="1" parent="1" source="RkNGV9gXXJkvIQX--Nig-28">
          <mxGeometry width="50" height="50" relative="1" as="geometry">
            <mxPoint x="449" y="217" as="sourcePoint" />
            <mxPoint x="449" y="180" as="targetPoint" />
          </mxGeometry>
        </mxCell>
        <mxCell id="RkNGV9gXXJkvIQX--Nig-5" value="" style="group" vertex="1" connectable="0" parent="1">
          <mxGeometry x="192" y="394" width="50" height="50" as="geometry" />
        </mxCell>
        <mxCell id="RkNGV9gXXJkvIQX--Nig-6" value="&lt;font style=&quot;font-size: 8px;&quot;&gt;X0&lt;/font&gt;" style="html=1;verticalAlign=bottom;startArrow=oval;startFill=1;endArrow=block;startSize=8;curved=0;rounded=0;labelBackgroundColor=none;" edge="1" parent="RkNGV9gXXJkvIQX--Nig-5">
          <mxGeometry x="1" width="60" relative="1" as="geometry">
            <mxPoint x="10" y="40" as="sourcePoint" />
            <mxPoint x="50" y="40" as="targetPoint" />
            <mxPoint as="offset" />
          </mxGeometry>
        </mxCell>
        <mxCell id="RkNGV9gXXJkvIQX--Nig-7" value="&lt;h5&gt;&lt;font style=&quot;font-size: 8px; font-weight: normal;&quot;&gt;Z0&lt;/font&gt;&lt;/h5&gt;" style="html=1;verticalAlign=bottom;startArrow=oval;startFill=1;endArrow=block;startSize=8;curved=0;rounded=0;labelBackgroundColor=none;fontSize=8;" edge="1" parent="RkNGV9gXXJkvIQX--Nig-5">
          <mxGeometry x="0.2" y="2" width="60" relative="1" as="geometry">
            <mxPoint x="10" y="40" as="sourcePoint" />
            <mxPoint x="10" as="targetPoint" />
            <mxPoint as="offset" />
          </mxGeometry>
        </mxCell>
        <mxCell id="RkNGV9gXXJkvIQX--Nig-8" value="" style="verticalLabelPosition=bottom;verticalAlign=top;html=1;shape=mxgraph.flowchart.or;" vertex="1" parent="RkNGV9gXXJkvIQX--Nig-5">
          <mxGeometry y="30" width="20" height="20" as="geometry" />
        </mxCell>
        <mxCell id="RkNGV9gXXJkvIQX--Nig-9" value="" style="group;rotation=0;" vertex="1" connectable="0" parent="1">
          <mxGeometry x="199" y="190" width="50" height="50" as="geometry" />
        </mxCell>
        <mxCell id="RkNGV9gXXJkvIQX--Nig-10" value="&lt;font style=&quot;font-size: 8px;&quot;&gt;Y3&lt;/font&gt;" style="html=1;verticalAlign=bottom;startArrow=oval;startFill=1;endArrow=block;startSize=8;curved=0;rounded=0;labelBackgroundColor=none;" edge="1" parent="RkNGV9gXXJkvIQX--Nig-9">
          <mxGeometry x="0.5" width="60" relative="1" as="geometry">
            <mxPoint x="10" y="40" as="sourcePoint" />
            <mxPoint x="50" y="40" as="targetPoint" />
            <mxPoint as="offset" />
          </mxGeometry>
        </mxCell>
        <mxCell id="RkNGV9gXXJkvIQX--Nig-11" value="&lt;h5&gt;&lt;font style=&quot;font-size: 8px; font-weight: normal;&quot;&gt;X3&lt;/font&gt;&lt;/h5&gt;" style="html=1;verticalAlign=bottom;startArrow=oval;startFill=1;endArrow=block;startSize=8;curved=0;rounded=0;labelBackgroundColor=none;fontSize=8;" edge="1" parent="RkNGV9gXXJkvIQX--Nig-9">
          <mxGeometry x="-0.5" y="-11" width="60" relative="1" as="geometry">
            <mxPoint x="10" y="40" as="sourcePoint" />
            <mxPoint x="10" as="targetPoint" />
            <mxPoint as="offset" />
          </mxGeometry>
        </mxCell>
        <mxCell id="RkNGV9gXXJkvIQX--Nig-12" value="" style="verticalLabelPosition=bottom;verticalAlign=top;html=1;shape=mxgraph.flowchart.or;rotation=0;" vertex="1" parent="RkNGV9gXXJkvIQX--Nig-9">
          <mxGeometry y="30" width="20" height="20" as="geometry" />
        </mxCell>
        <mxCell id="RkNGV9gXXJkvIQX--Nig-13" value="" style="endArrow=none;html=1;rounded=0;" edge="1" parent="1">
          <mxGeometry width="50" height="50" relative="1" as="geometry">
            <mxPoint x="249" y="360" as="sourcePoint" />
            <mxPoint x="249" y="180" as="targetPoint" />
          </mxGeometry>
        </mxCell>
        <mxCell id="RkNGV9gXXJkvIQX--Nig-14" value="" style="ellipse;whiteSpace=wrap;html=1;aspect=fixed;" vertex="1" parent="1">
          <mxGeometry x="244" y="195" width="10" height="10" as="geometry" />
        </mxCell>
        <mxCell id="RkNGV9gXXJkvIQX--Nig-15" value="" style="endArrow=none;html=1;rounded=0;" edge="1" parent="1" source="RkNGV9gXXJkvIQX--Nig-17">
          <mxGeometry width="50" height="50" relative="1" as="geometry">
            <mxPoint x="189" y="450" as="sourcePoint" />
            <mxPoint x="189" y="357" as="targetPoint" />
          </mxGeometry>
        </mxCell>
        <mxCell id="RkNGV9gXXJkvIQX--Nig-16" value="" style="endArrow=none;html=1;rounded=0;" edge="1" parent="1">
          <mxGeometry width="50" height="50" relative="1" as="geometry">
            <mxPoint x="189" y="447" as="sourcePoint" />
            <mxPoint x="188.70999999999998" y="362" as="targetPoint" />
          </mxGeometry>
        </mxCell>
        <mxCell id="RkNGV9gXXJkvIQX--Nig-17" value="" style="verticalLabelPosition=bottom;verticalAlign=top;html=1;shape=mxgraph.flowchart.sort;direction=west;" vertex="1" parent="1">
          <mxGeometry x="179" y="352" width="20" height="10" as="geometry" />
        </mxCell>
        <mxCell id="RkNGV9gXXJkvIQX--Nig-18" value="" style="group;rotation=-90;" vertex="1" connectable="0" parent="1">
          <mxGeometry x="179" y="297" width="50" height="50" as="geometry" />
        </mxCell>
        <mxCell id="RkNGV9gXXJkvIQX--Nig-19" value="&lt;font style=&quot;font-size: 8px;&quot;&gt;X1&lt;/font&gt;" style="html=1;verticalAlign=bottom;startArrow=oval;startFill=1;endArrow=block;startSize=8;curved=0;rounded=0;labelBackgroundColor=none;" edge="1" parent="RkNGV9gXXJkvIQX--Nig-18">
          <mxGeometry x="1" y="1" width="60" relative="1" as="geometry">
            <mxPoint x="10" y="40" as="sourcePoint" />
            <mxPoint x="50" y="40" as="targetPoint" />
            <mxPoint x="1" y="1" as="offset" />
          </mxGeometry>
        </mxCell>
        <mxCell id="RkNGV9gXXJkvIQX--Nig-20" value="&lt;h5&gt;&lt;font style=&quot;font-size: 8px; font-weight: normal;&quot;&gt;Z1&lt;/font&gt;&lt;/h5&gt;" style="html=1;verticalAlign=bottom;startArrow=oval;startFill=1;endArrow=block;startSize=8;curved=0;rounded=0;labelBackgroundColor=none;fontSize=8;" edge="1" parent="RkNGV9gXXJkvIQX--Nig-18">
          <mxGeometry x="-0.15" y="-11" width="60" relative="1" as="geometry">
            <mxPoint x="10" y="40" as="sourcePoint" />
            <mxPoint x="10" as="targetPoint" />
            <mxPoint as="offset" />
          </mxGeometry>
        </mxCell>
        <mxCell id="RkNGV9gXXJkvIQX--Nig-21" value="" style="verticalLabelPosition=bottom;verticalAlign=top;html=1;shape=mxgraph.flowchart.or;rotation=0;" vertex="1" parent="RkNGV9gXXJkvIQX--Nig-18">
          <mxGeometry y="30" width="20" height="20" as="geometry" />
        </mxCell>
        <mxCell id="RkNGV9gXXJkvIQX--Nig-22" value="" style="group;rotation=-90;" vertex="1" connectable="0" parent="1">
          <mxGeometry x="228" y="333" width="50" height="50" as="geometry" />
        </mxCell>
        <mxCell id="RkNGV9gXXJkvIQX--Nig-23" value="" style="ellipse;whiteSpace=wrap;html=1;aspect=fixed;container=0;rotation=-90;" vertex="1" parent="RkNGV9gXXJkvIQX--Nig-22">
          <mxGeometry x="30" y="30" width="20" height="20" as="geometry" />
        </mxCell>
        <mxCell id="RkNGV9gXXJkvIQX--Nig-24" value="&lt;font style=&quot;font-size: 8px;&quot;&gt;X2&lt;/font&gt;" style="html=1;verticalAlign=bottom;startArrow=oval;startFill=1;endArrow=block;startSize=8;curved=0;rounded=0;labelBackgroundColor=none;" edge="1" parent="RkNGV9gXXJkvIQX--Nig-22">
          <mxGeometry x="0.5" y="10" width="60" relative="1" as="geometry">
            <mxPoint x="40" y="40" as="sourcePoint" />
            <mxPoint x="40" as="targetPoint" />
            <mxPoint as="offset" />
          </mxGeometry>
        </mxCell>
        <mxCell id="RkNGV9gXXJkvIQX--Nig-25" value="&lt;font&gt;Y2&lt;/font&gt;" style="html=1;verticalAlign=bottom;startArrow=oval;startFill=1;endArrow=block;startSize=8;curved=0;rounded=0;fontSize=8;labelBackgroundColor=none;" edge="1" parent="RkNGV9gXXJkvIQX--Nig-22">
          <mxGeometry x="1" width="60" relative="1" as="geometry">
            <mxPoint x="40" y="40" as="sourcePoint" />
            <mxPoint y="40" as="targetPoint" />
            <mxPoint as="offset" />
          </mxGeometry>
        </mxCell>
        <mxCell id="RkNGV9gXXJkvIQX--Nig-26" value="" style="endArrow=none;html=1;rounded=0;" edge="1" parent="1">
          <mxGeometry width="50" height="50" relative="1" as="geometry">
            <mxPoint x="270" y="348" as="sourcePoint" />
            <mxPoint x="270" y="348" as="targetPoint" />
          </mxGeometry>
        </mxCell>
        <mxCell id="RkNGV9gXXJkvIQX--Nig-27" value="" style="endArrow=none;html=1;rounded=0;" edge="1" parent="1" target="RkNGV9gXXJkvIQX--Nig-28">
          <mxGeometry width="50" height="50" relative="1" as="geometry">
            <mxPoint x="449" y="217" as="sourcePoint" />
            <mxPoint x="449" y="180" as="targetPoint" />
          </mxGeometry>
        </mxCell>
        <mxCell id="RkNGV9gXXJkvIQX--Nig-28" value="" style="verticalLabelPosition=bottom;verticalAlign=top;html=1;shape=mxgraph.flowchart.sort;direction=west;" vertex="1" parent="1">
          <mxGeometry x="439" y="212" width="20" height="10" as="geometry" />
        </mxCell>
        <mxCell id="RkNGV9gXXJkvIQX--Nig-29" value="" style="endArrow=none;html=1;rounded=0;" edge="1" parent="1">
          <mxGeometry width="50" height="50" relative="1" as="geometry">
            <mxPoint x="149" y="447" as="sourcePoint" />
            <mxPoint x="229" y="447" as="targetPoint" />
          </mxGeometry>
        </mxCell>
        <mxCell id="RkNGV9gXXJkvIQX--Nig-30" value="" style="endArrow=none;html=1;rounded=0;" edge="1" parent="1">
          <mxGeometry width="50" height="50" relative="1" as="geometry">
            <mxPoint x="189" y="357" as="sourcePoint" />
            <mxPoint x="250" y="357" as="targetPoint" />
          </mxGeometry>
        </mxCell>
        <mxCell id="RkNGV9gXXJkvIQX--Nig-31" value="" style="verticalLabelPosition=bottom;verticalAlign=top;html=1;shape=mxgraph.flowchart.sort;direction=south;" vertex="1" parent="1">
          <mxGeometry x="444" y="170" width="10" height="20" as="geometry" />
        </mxCell>
        <mxCell id="RkNGV9gXXJkvIQX--Nig-32" value="" style="ellipse;whiteSpace=wrap;html=1;aspect=fixed;" vertex="1" parent="1">
          <mxGeometry x="444" y="175" width="10" height="10" as="geometry" />
        </mxCell>
        <mxCell id="RkNGV9gXXJkvIQX--Nig-33" value="" style="group;rotation=-90;" vertex="1" connectable="0" parent="1">
          <mxGeometry x="460" y="117" width="50" height="50" as="geometry" />
        </mxCell>
        <mxCell id="RkNGV9gXXJkvIQX--Nig-34" value="&lt;font style=&quot;font-size: 8px;&quot;&gt;Y5&lt;/font&gt;" style="html=1;verticalAlign=bottom;startArrow=oval;startFill=1;endArrow=block;startSize=8;curved=0;rounded=0;labelBackgroundColor=none;" edge="1" parent="RkNGV9gXXJkvIQX--Nig-33">
          <mxGeometry x="0.5" y="10" width="60" relative="1" as="geometry">
            <mxPoint x="40" y="40" as="sourcePoint" />
            <mxPoint x="40" as="targetPoint" />
            <mxPoint as="offset" />
          </mxGeometry>
        </mxCell>
        <mxCell id="RkNGV9gXXJkvIQX--Nig-35" value="&lt;h5&gt;&lt;font style=&quot;font-size: 8px; font-weight: normal;&quot;&gt;X5&lt;/font&gt;&lt;/h5&gt;" style="html=1;verticalAlign=bottom;startArrow=oval;startFill=1;endArrow=block;startSize=8;curved=0;rounded=0;labelBackgroundColor=none;fontSize=8;" edge="1" parent="RkNGV9gXXJkvIQX--Nig-33">
          <mxGeometry x="1" y="10" width="60" relative="1" as="geometry">
            <mxPoint x="40" y="40" as="sourcePoint" />
            <mxPoint y="40" as="targetPoint" />
            <mxPoint as="offset" />
          </mxGeometry>
        </mxCell>
        <mxCell id="RkNGV9gXXJkvIQX--Nig-36" value="" style="verticalLabelPosition=bottom;verticalAlign=top;html=1;shape=mxgraph.flowchart.or;rotation=-90;" vertex="1" parent="RkNGV9gXXJkvIQX--Nig-33">
          <mxGeometry x="30" y="30" width="20" height="20" as="geometry" />
        </mxCell>
        <mxCell id="RkNGV9gXXJkvIQX--Nig-37" value="" style="group;rotation=0;" vertex="1" connectable="0" parent="1">
          <mxGeometry x="380" y="117" width="50" height="50" as="geometry" />
        </mxCell>
        <mxCell id="RkNGV9gXXJkvIQX--Nig-38" value="" style="ellipse;whiteSpace=wrap;html=1;aspect=fixed;container=0;rotation=0;" vertex="1" parent="RkNGV9gXXJkvIQX--Nig-37">
          <mxGeometry y="30" width="20" height="20" as="geometry" />
        </mxCell>
        <mxCell id="RkNGV9gXXJkvIQX--Nig-39" value="&lt;font style=&quot;font-size: 8px;&quot;&gt;Z4&lt;/font&gt;" style="html=1;verticalAlign=bottom;startArrow=oval;startFill=1;endArrow=block;startSize=8;curved=0;rounded=0;labelBackgroundColor=none;" edge="1" parent="RkNGV9gXXJkvIQX--Nig-37">
          <mxGeometry x="1" width="60" relative="1" as="geometry">
            <mxPoint x="10" y="40" as="sourcePoint" />
            <mxPoint x="50" y="40" as="targetPoint" />
            <mxPoint as="offset" />
          </mxGeometry>
        </mxCell>
        <mxCell id="RkNGV9gXXJkvIQX--Nig-40" value="&lt;font&gt;X4&lt;/font&gt;" style="html=1;verticalAlign=bottom;startArrow=oval;startFill=1;endArrow=block;startSize=8;curved=0;rounded=0;fontSize=8;labelBackgroundColor=none;" edge="1" parent="RkNGV9gXXJkvIQX--Nig-37">
          <mxGeometry y="-10" width="60" relative="1" as="geometry">
            <mxPoint x="10" y="40" as="sourcePoint" />
            <mxPoint x="10" as="targetPoint" />
            <mxPoint as="offset" />
          </mxGeometry>
        </mxCell>
        <mxCell id="RkNGV9gXXJkvIQX--Nig-41" value="" style="group;rotation=-180;" vertex="1" connectable="0" parent="1">
          <mxGeometry x="410" y="227" width="50" height="50" as="geometry" />
        </mxCell>
        <mxCell id="RkNGV9gXXJkvIQX--Nig-42" value="&lt;font style=&quot;font-size: 8px;&quot;&gt;X6&lt;/font&gt;" style="html=1;verticalAlign=bottom;startArrow=oval;startFill=1;endArrow=block;startSize=8;curved=0;rounded=0;labelBackgroundColor=none;" edge="1" parent="RkNGV9gXXJkvIQX--Nig-41">
          <mxGeometry x="1" y="20" width="60" relative="1" as="geometry">
            <mxPoint x="40" y="10" as="sourcePoint" />
            <mxPoint y="10" as="targetPoint" />
            <mxPoint as="offset" />
          </mxGeometry>
        </mxCell>
        <mxCell id="RkNGV9gXXJkvIQX--Nig-43" value="&lt;h5&gt;&lt;font style=&quot;font-size: 8px; font-weight: normal;&quot;&gt;Z6&lt;/font&gt;&lt;/h5&gt;" style="html=1;verticalAlign=bottom;startArrow=oval;startFill=1;endArrow=block;startSize=8;curved=0;rounded=0;labelBackgroundColor=none;fontSize=8;" edge="1" parent="RkNGV9gXXJkvIQX--Nig-41">
          <mxGeometry x="1" y="14" width="60" relative="1" as="geometry">
            <mxPoint x="40" y="10" as="sourcePoint" />
            <mxPoint x="40" y="50" as="targetPoint" />
            <mxPoint x="-4" y="10" as="offset" />
          </mxGeometry>
        </mxCell>
        <mxCell id="RkNGV9gXXJkvIQX--Nig-44" value="" style="verticalLabelPosition=bottom;verticalAlign=top;html=1;shape=mxgraph.flowchart.or;rotation=-180;" vertex="1" parent="RkNGV9gXXJkvIQX--Nig-41">
          <mxGeometry x="30" width="20" height="20" as="geometry" />
        </mxCell>
        <mxCell id="RkNGV9gXXJkvIQX--Nig-45" value="" style="ellipse;whiteSpace=wrap;html=1;aspect=fixed;" vertex="1" parent="1">
          <mxGeometry x="244" y="352" width="10" height="10" as="geometry" />
        </mxCell>
      </root>
    </mxGraphModel>
  </diagram>
</mxfile>
